<svg width="153" height="50" viewBox="0 0 153 50" fill="none" xmlns="http://www.w3.org/2000/svg">
<path d="M0.5 8C0.5 3.85787 3.85786 0.5 8 0.5H85.5V49.5H8C3.85786 49.5 0.5 46.1421 0.5 42V8Z" fill="#6E07F3"/>
<path d="M0.5 8C0.5 3.85787 3.85786 0.5 8 0.5H85.5V49.5H8C3.85786 49.5 0.5 46.1421 0.5 42V8Z" stroke="#6E07F3"/>
<path d="M17.8546 34V13.224H26.5906C27.4679 13.224 28.2706 13.336 28.9986 13.56C29.7452 13.7653 30.3892 14.1293 30.9306 14.652C31.4906 15.156 31.9199 15.8467 32.2186 16.724C32.5359 17.6013 32.6946 18.712 32.6946 20.056C32.6946 20.9707 32.6106 21.7547 32.4426 22.408C32.2746 23.0427 32.0506 23.584 31.7706 24.032C31.4906 24.4613 31.1639 24.816 30.7906 25.096C30.4359 25.376 30.0626 25.6187 29.6706 25.824L33.3946 34H28.4666L25.3586 26.608C25.1719 26.608 24.9572 26.608 24.7146 26.608C24.4906 26.5893 24.2666 26.58 24.0426 26.58C23.8186 26.58 23.5852 26.58 23.3426 26.58C23.1186 26.58 22.9039 26.58 22.6986 26.58V34H17.8546ZM22.6986 22.744H25.7226C26.0586 22.744 26.3572 22.7067 26.6186 22.632C26.8799 22.5387 27.1039 22.3893 27.2906 22.184C27.4772 21.96 27.6172 21.68 27.7106 21.344C27.8039 21.008 27.8506 20.588 27.8506 20.084C27.8506 19.58 27.8039 19.1693 27.7106 18.852C27.6172 18.516 27.4772 18.264 27.2906 18.096C27.1039 17.9093 26.8799 17.7787 26.6186 17.704C26.3572 17.6107 26.0586 17.564 25.7226 17.564H22.6986V22.744ZM43.2447 34.168C41.8073 34.168 40.538 34.028 39.4367 33.748C38.354 33.468 37.4393 32.9547 36.6927 32.208C35.9647 31.4613 35.414 30.3973 35.0407 29.016C34.686 27.6347 34.5087 25.8333 34.5087 23.612C34.5087 21.4093 34.6953 19.6173 35.0687 18.236C35.442 16.836 35.9927 15.7627 36.7207 15.016C37.4487 14.2693 38.354 13.756 39.4367 13.476C40.538 13.1773 41.8073 13.028 43.2447 13.028C44.7007 13.028 45.97 13.1773 47.0527 13.476C48.154 13.756 49.0687 14.2693 49.7967 15.016C50.5247 15.7627 51.066 16.836 51.4207 18.236C51.794 19.6173 51.9807 21.4093 51.9807 23.612C51.9807 25.8333 51.794 27.6347 51.4207 29.016C51.066 30.3973 50.5153 31.4613 49.7687 32.208C49.0407 32.9547 48.1353 33.468 47.0527 33.748C45.97 34.028 44.7007 34.168 43.2447 34.168ZM43.2447 29.828C44.01 29.828 44.6447 29.744 45.1487 29.576C45.6527 29.3893 46.0447 29.0813 46.3247 28.652C46.6233 28.204 46.8287 27.5787 46.9407 26.776C47.0713 25.9547 47.1367 24.9 47.1367 23.612C47.1367 22.2867 47.0713 21.2133 46.9407 20.392C46.8287 19.5707 46.6233 18.9453 46.3247 18.516C46.0447 18.068 45.6527 17.7693 45.1487 17.62C44.6447 17.452 44.01 17.368 43.2447 17.368C42.498 17.368 41.8727 17.452 41.3687 17.62C40.8647 17.7693 40.4633 18.068 40.1647 18.516C39.8847 18.9453 39.6793 19.5707 39.5487 20.392C39.418 21.2133 39.3527 22.2867 39.3527 23.612C39.3527 24.9 39.4087 25.9547 39.5207 26.776C39.6513 27.5787 39.8567 28.204 40.1367 28.652C40.4353 29.0813 40.8367 29.3893 41.3407 29.576C41.8447 29.744 42.4793 29.828 43.2447 29.828ZM58.5454 34V27.924L52.4414 13.224H57.4534L61.0654 22.996L64.6774 13.224H69.4934L63.3894 27.924V34H58.5454Z" fill="white"/>
<path d="M86.5 0.5H145C149.142 0.5 152.5 3.85786 152.5 8V42C152.5 46.1421 149.142 49.5 145 49.5H86.5V0.5Z" fill="white"/>
<path d="M86.5 0.5H145C149.142 0.5 152.5 3.85786 152.5 8V42C152.5 46.1421 149.142 49.5 145 49.5H86.5V0.5Z" stroke="#6E07F3"/>
<path d="M103.768 34V13.224H112.728C113.419 13.224 114.128 13.308 114.856 13.476C115.584 13.6253 116.247 13.9427 116.844 14.428C117.46 14.9133 117.955 15.6507 118.328 16.64C118.701 17.6107 118.888 18.908 118.888 20.532C118.888 22.156 118.701 23.472 118.328 24.48C117.955 25.4693 117.469 26.216 116.872 26.72C116.293 27.224 115.659 27.5693 114.968 27.756C114.277 27.924 113.605 28.008 112.952 28.008C112.616 28.008 112.243 27.9893 111.832 27.952C111.421 27.9147 111.011 27.868 110.6 27.812C110.189 27.756 109.807 27.7 109.452 27.644C109.116 27.5693 108.836 27.5227 108.612 27.504V34H103.768ZM108.612 23.668H112.196C112.625 23.668 112.971 23.556 113.232 23.332C113.512 23.108 113.717 22.772 113.848 22.324C113.979 21.876 114.044 21.288 114.044 20.56C114.044 19.8693 113.969 19.3093 113.82 18.88C113.689 18.432 113.493 18.1053 113.232 17.9C112.971 17.676 112.635 17.564 112.224 17.564H108.612V23.668ZM120.79 34V13.224H129.526C130.403 13.224 131.206 13.336 131.934 13.56C132.681 13.7653 133.325 14.1293 133.866 14.652C134.426 15.156 134.855 15.8467 135.154 16.724C135.471 17.6013 135.63 18.712 135.63 20.056C135.63 20.9707 135.546 21.7547 135.378 22.408C135.21 23.0427 134.986 23.584 134.706 24.032C134.426 24.4613 134.099 24.816 133.726 25.096C133.371 25.376 132.998 25.6187 132.606 25.824L136.33 34H131.402L128.294 26.608C128.107 26.608 127.893 26.608 127.65 26.608C127.426 26.5893 127.202 26.58 126.978 26.58C126.754 26.58 126.521 26.58 126.278 26.58C126.054 26.58 125.839 26.58 125.634 26.58V34H120.79ZM125.634 22.744H128.658C128.994 22.744 129.293 22.7067 129.554 22.632C129.815 22.5387 130.039 22.3893 130.226 22.184C130.413 21.96 130.553 21.68 130.646 21.344C130.739 21.008 130.786 20.588 130.786 20.084C130.786 19.58 130.739 19.1693 130.646 18.852C130.553 18.516 130.413 18.264 130.226 18.096C130.039 17.9093 129.815 17.7787 129.554 17.704C129.293 17.6107 128.994 17.564 128.658 17.564H125.634V22.744Z" fill="#6E07F3"/>
</svg>
